Coordinates
version=1
nRows=14
nColumns=33
inDegrees=yes

Units are S.I. units (second, meters, Newtons, ...)
Angles are in degrees.

endheader
time	ground_thorax_rot_x	ground_thorax_rot_y	ground_thorax_rot_z	ground_thorax_tx	ground_thorax_ty	ground_thorax_tz	clav_prot_r	clav_elev_r	scapula_abduction_r	scapula_elevation_r	scapula_upward_rot_r	scapula_winging_r	shoulder_elv_r	plane_of_elev_r	axial_rot_r	elbow_flexion_r	pro_sup_r	wrist_flex_r	wrist_dev_r	clav_prot_l	clav_elev_l	scapula_abduction_l	scapula_elevation_l	scapula_upward_rot_l	scapula_winging_l	shoulder_elv_l	plane_of_elev_l	axial_rot_l	elbow_flexion_l	pro_sup_l	wrist_flex_l	wrist_dev_l
      8.62000000	    -42.36647142	    -17.09552779	      9.76523692	   -127.12752400	    796.18287022	     -1.07810661	      8.20168462	    -45.00000000	     32.70689962	    -45.00000000	    -44.31629677	  -1531.57298900	  -1553.70459738	    151.21116442	    -94.43590474	   1810.85640262	     27.06326707	     17.94038353	      9.70853548	     17.51005637	     39.97823670	    -39.82755754	    -45.00000000	    -45.00000000	   3679.20096498	  -2979.85778930	    136.83440623	    174.95337353	   2885.28389904	     15.67112869	     12.46426724	    -18.96538251
      8.63000000	    -42.41826835	    -16.94716560	      9.61758299	   -132.44226770	    797.27525421	     -1.51343056	      8.29714323	    -45.00000000	     32.58879719	    -45.00000000	    -45.00000000	  -1531.90269889	  -1553.47639545	    151.18778366	    -94.59621682	   1811.01565031	     27.89652831	     18.00629744	      9.71622226	     17.32056309	     39.97044947	    -39.64040089	    -45.00000000	    -45.00000000	   3679.47541278	  -2979.91694204	    137.01690939	    174.14535617	   2885.50745321	     16.41458544	     12.17591449	    -19.07583780
      8.64000000	    -42.43225465	    -16.89405648	      9.54234743	   -137.77804339	    798.53211769	     -1.92786973	      8.45762392	    -45.00000000	     32.52031800	    -45.00000000	    -45.00000000	  -1532.43976557	  -1553.46730942	    151.32651528	    -93.21034685	   1811.09932661	     28.81760733	     17.99652537	      9.47546295	     17.36785753	     39.86457740	    -39.30109289	    -45.00000000	    -45.00000000	   3679.62542071	  -2979.86411928	    137.34954586	    172.82226581	   2885.84888045	     17.30670728	     12.16342134	    -19.28169239
      8.65000000	    -42.45271479	    -16.68739009	      9.30097961	   -143.11381356	    799.96162651	     -2.32408288	      8.51901928	    -45.00000000	     32.53948042	    -45.00000000	    -45.00000000	  -1532.89220980	  -1553.39754684	    151.42235006	    -92.77509355	   1811.21384932	     29.66852504	     18.04964695	      9.43143505	     17.18164576	     39.76739633	    -39.07653356	    -45.00000000	    -45.00000000	   3679.88191236	  -2979.89261519	    137.53000033	    171.88563878	   2886.12758971	     18.11463362	     11.98933703	    -19.45484737
      8.66000000	    -42.42594909	    -16.51754731	      9.17089593	   -148.42890673	    801.56548484	     -2.70702930	      8.81536277	    -45.00000000	     32.68977347	    -45.00000000	    -45.00000000	  -1533.78194316	  -1553.57961534	    151.20288418	    -91.16049452	   1811.31804078	     30.59384173	     18.04069908	      9.32398471	     17.54741364	     39.37458234	    -39.01276022	    -45.00000000	    -45.00000000	   3680.31475742	  -2980.27101012	    137.64677987	    170.64706610	   2886.18821064	     19.02906130	     11.21916205	    -19.36729749
      8.67000000	    -42.45222655	    -16.20010516	      8.94244859	   -153.71068477	    803.35301959	     -3.08089836	      8.74867689	    -45.00000000	     32.43829649	    -45.00000000	    -45.00000000	  -1533.95348340	  -1553.23870868	    151.53732651	    -91.15614762	   1811.48140950	     31.42116467	     18.09542486	      9.14438437	     17.25887740	     39.57577229	    -38.76785743	    -45.00000000	    -45.00000000	   3680.30603308	  -2980.07517371	    138.00385518	    169.62622621	   2886.56023117	     19.95196029	     11.32940506	    -19.65493361
      8.68000000	    -42.46443916	    -16.02304401	      8.76665053	   -158.93597276	    805.32345642	     -3.44893596	      8.84623673	    -45.00000000	     32.48679560	    -45.00000000	    -45.00000000	  -1534.41452280	  -1553.12544148	    151.61322166	    -90.63714186	   1811.61028625	     32.29785594	     18.13107587	      9.01528189	     17.03601414	     39.49005048	    -38.53682000	    -45.00000000	    -45.00000000	   3680.58269676	  -2980.10366844	    138.22961165	    168.59511753	   2886.88302531	     20.85590116	     11.09902151	    -19.83182123
      8.69000000	    -42.48283397	    -15.76373628	      8.55926880	   -164.09198850	    807.47979978	     -3.81040986	      8.91514086	    -45.00000000	     32.47646028	    -45.00000000	    -45.00000000	  -1534.82607605	  -1553.03194036	    151.69861496	    -90.14944498	   1811.71123625	     33.19981635	     18.15863227	      8.88204202	     16.89146348	     39.42539308	    -38.30104298	    -45.00000000	    -45.00000000	   3680.81986867	  -2980.08323524	    138.40545410	    167.56546955	   2887.15555947	     21.78894725	     10.82219536	    -19.97310158
      8.70000000	    -42.51407359	    -15.46274793	      8.29340255	   -169.15956422	    809.81923432	     -4.16448822	      8.92596426	    -45.00000000	     32.48992903	    -45.00000000	    -45.00000000	  -1535.24997329	  -1552.95332505	    151.70710521	    -89.85082696	   1811.86235956	     34.07074702	     18.21073754	      8.76704130	     16.77682001	     39.31214474	    -38.01011631	    -45.00000000	    -45.00000000	   3681.07167156	  -2980.00143208	    138.49220621	    166.88270229	   2887.43152833	     22.68260964	     10.67075021	    -20.17182602
      8.71000000	    -42.51223146	    -15.14062975	      8.04881341	   -174.11793605	    812.33395245	     -4.50725369	      8.94921980	    -45.00000000	     32.50368562	    -45.00000000	    -45.00000000	  -1535.58747273	  -1552.78979894	    151.76497432	    -89.66940068	   1811.99641667	     34.93544053	     18.24980520	      8.61598074	     16.58327030	     39.28906761	    -37.84732438	    -45.00000000	    -45.00000000	   3681.23950053	  -2979.98691652	    138.73590840	    166.13255666	   2887.71339943	     23.62434217	     10.54651968	    -20.39045388
      8.72000000	    -42.52058003	    -14.85450725	      7.82952444	   -178.94795524	    815.01245865	     -4.83584962	      9.00889593	    -45.00000000	     32.52906367	    -45.00000000	    -45.00000000	  -1535.95043523	  -1552.67204561	    151.78632415	    -89.47112538	   1812.11553249	     35.79144551	     18.28390580	      8.48086494	     16.41809430	     39.23473100	    -37.59207556	    -45.00000000	    -45.00000000	   3681.48050031	  -2979.91482302	    138.90702377	    165.29230570	   2888.01928787	     24.56062193	     10.33410742	    -20.57624143
      8.73000000	    -42.50289484	    -14.49055180	      7.58805044	   -183.62895261	    817.83948937	     -5.14686823	      9.06691790	    -45.00000000	     32.62379635	    -45.00000000	    -45.00000000	  -1536.37838767	  -1552.53725655	    151.74738115	    -89.42259911	   1812.31813431	     36.61928025	     18.34700322	      8.34743720	     16.24169880	     39.07335015	    -37.40870658	    -45.00000000	    -45.00000000	   3681.66156893	  -2979.87684388	    139.04972620	    164.61885870	   2888.23724972	     25.47621647	     10.28003733	    -20.81811491
      8.74000000	    -42.49977763	    -14.16520922	      7.37712565	   -188.14372967	    820.79683327	     -5.44083579	      9.16407351	    -45.00000000	     32.68964667	    -45.00000000	    -45.00000000	  -1536.73327358	  -1552.45395699	    151.73862959	    -89.31040851	   1812.39910611	     37.38593877	     18.36273360	      8.22647120	     16.03436985	     39.01051309	    -37.18677234	    -45.00000000	    -45.00000000	   3681.94494338	  -2979.77561768	    139.18043241	    163.72394130	   2888.54776585	     26.39940957	     10.04318875	    -20.98260407
      8.75000000	    -42.48658474	    -13.87703250	      7.19639044	   -192.47601912	    823.86579370	     -5.71911553	      9.19800309	    -45.00000000	     32.73261313	    -45.00000000	    -45.00000000	  -1537.06696368	  -1552.27200815	    151.71606260	    -89.31191848	   1812.52435860	     38.06988489	     18.39744388	      8.10260704	     15.86451979	     38.99118678	    -36.93500536	    -45.00000000	    -45.00000000	   3682.12728477	  -2979.67538730	    139.37539943	    163.11294593	   2888.77646901	     27.28475775	      9.91188111	    -21.17143947
